<svg xmlns="http://www.w3.org/2000/svg" xmlns:xlink="http://www.w3.org/1999/xlink" width="500" zoomAndPan="magnify" viewBox="0 0 375 374.999991" height="500" preserveAspectRatio="xMidYMid meet" version="1.0"><defs><clipPath id="f1f8774d91"><path d="M 4 81 L 365 81 L 365 275 L 4 275 Z M 4 81 " clip-rule="nonzero"/></clipPath><clipPath id="1c907ff031"><path d="M 114.496094 -126.6875 L 534.84375 118.738281 L 289.414062 539.085938 L -130.929688 293.65625 Z M 114.496094 -126.6875 " clip-rule="nonzero"/></clipPath><clipPath id="f62b126f3a"><path d="M 114.496094 -126.6875 L 534.84375 118.738281 L 289.414062 539.085938 L -130.929688 293.65625 Z M 114.496094 -126.6875 " clip-rule="nonzero"/></clipPath></defs><g clip-path="url(#f1f8774d91)"><g clip-path="url(#1c907ff031)"><g clip-path="url(#f62b126f3a)"><path fill="#ffffff" d="M 364.03125 267.976562 C 364.65625 262.910156 360.296875 258.820312 359.011719 253.417969 C 358.40625 250.980469 363.269531 241.789062 363.753906 237.925781 C 366.601562 215.300781 354.4375 190.984375 337.378906 176.574219 C 313.015625 156.019531 305.933594 146.949219 276.878906 133.714844 C 276.878906 133.714844 265.796875 128.84375 257.960938 126.464844 C 263.621094 126.195312 269.230469 126.636719 274.78125 127.792969 C 274.546875 126.378906 274.359375 125.191406 274.292969 124.925781 C 272.429688 116.863281 267.679688 110.722656 261.59375 105.34375 C 252.828125 97.570312 242.734375 91.527344 232.25 86.375 C 229.382812 84.972656 226.765625 82.621094 223.632812 81.839844 C 219.003906 80.691406 216.410156 83.019531 220.4375 86.734375 C 223.660156 89.679688 226.386719 93.03125 228.621094 96.785156 C 230.855469 100.542969 232.5 104.539062 233.554688 108.777344 C 234.085938 111.015625 234.539062 114.230469 233.195312 116.296875 C 231.25 119.285156 228.375 118.472656 225.304688 118.023438 C 209.570312 115.660156 192.132812 114.660156 176.371094 117.320312 C 173.429688 117.800781 170.507812 118.371094 167.605469 119.03125 C 164.699219 119.691406 161.816406 120.441406 158.960938 121.285156 C 156.101562 122.128906 153.273438 123.058594 150.472656 124.078125 C 147.675781 125.097656 144.910156 126.203125 142.179688 127.394531 C 139.449219 128.589844 136.761719 129.867188 134.109375 131.226562 C 131.460938 132.589844 128.855469 134.03125 126.296875 135.558594 C 123.738281 137.082031 121.226562 138.683594 118.769531 140.367188 C 116.3125 142.050781 113.90625 143.808594 111.558594 145.640625 C 109.210938 147.472656 106.921875 149.378906 104.691406 151.355469 C 102.464844 153.332031 100.296875 155.375 98.199219 157.488281 C 96.097656 159.601562 94.0625 161.777344 92.101562 164.015625 C 90.136719 166.257812 88.242188 168.554688 86.421875 170.914062 C 84.601562 173.273438 82.859375 175.6875 81.191406 178.15625 C 79.523438 180.621094 77.933594 183.140625 76.421875 185.707031 C 74.910156 188.277344 73.480469 190.890625 72.136719 193.546875 C 70.789062 196.203125 69.527344 198.902344 68.347656 201.636719 C 68.027344 202.574219 63.152344 216.460938 62.789062 223.816406 C 61.992188 218.945312 61.621094 214.042969 61.675781 209.109375 C 54.863281 207.5625 38.296875 209.210938 36.472656 209.691406 C 31.738281 210.890625 27.183594 212.566406 22.804688 214.722656 C 18.425781 216.878906 14.316406 219.46875 10.480469 222.488281 C 8.292969 224.308594 2.941406 233.722656 5.832031 236.414062 C 7.824219 238.25 20.539062 234.375 23.851562 234.375 C 36.90625 234.4375 51.207031 239.40625 59.621094 249.792969 C 63.226562 254.230469 63.871094 261.34375 69.902344 260.96875 C 85.261719 259.976562 81.242188 229.757812 78.523438 221.546875 C 77.273438 217.765625 95.601562 209.042969 98.417969 207.554688 C 107.527344 202.746094 117.058594 199.007812 127.011719 196.347656 C 160.972656 187.222656 199.328125 190.183594 231.359375 204.59375 C 235.046875 201.027344 239.144531 198.019531 243.652344 195.574219 C 239.507812 199.664062 235.476562 206.511719 235.476562 206.511719 L 234.5625 207.1875 C 231.644531 210.527344 223.464844 225.019531 224.027344 227.160156 C 227.460938 240.824219 260.289062 226.992188 265.03125 219.296875 C 266.734375 216.53125 287.085938 226.363281 289.824219 227.746094 C 313.394531 239.761719 334.496094 255.316406 354.863281 272.0625 C 356.042969 273.234375 357.449219 273.988281 359.078125 274.320312 C 362.234375 274.621094 363.734375 270.4375 364.03125 267.976562 Z M 364.03125 267.976562 " fill-opacity="1" fill-rule="nonzero"/></g></g></g></svg>